<svg xmlns="http://www.w3.org/2000/svg" xmlns:xlink="http://www.w3.org/1999/xlink" version="1.1" x="0px" y="0px" viewBox="0 0 60 75" style="enable-background:new 0 0 60 60;" xml:space="preserve"><path d="M26.52,27.36c-1.22-1.58-3.3-3.62-5.91-3.62c-0.04,0-0.08,0-0.12,0c-0.43,0.01-0.81,0.29-0.93,0.71  c-0.07,0.22-1.6,5.33,0.32,9.2c-0.52,1.3-0.79,2.66-0.79,4.06c0,1.31,0.24,2.56,0.67,3.73l-2.34,0.74  c-0.53,0.17-0.82,0.73-0.65,1.26c0.13,0.43,0.53,0.7,0.95,0.7c0.1,0,0.2-0.02,0.3-0.05l2.6-0.82c0.37,0.62,0.8,1.2,1.28,1.74  l-1.97,1.75c-0.41,0.37-0.45,1-0.08,1.41c0.2,0.22,0.47,0.34,0.75,0.34c0.24,0,0.47-0.08,0.66-0.25l2.12-1.88  c0.39,0.3,0.8,0.57,1.22,0.82l-1.97,2.34c-0.36,0.42-0.3,1.05,0.12,1.41c0.19,0.16,0.42,0.24,0.64,0.24c0.29,0,0.57-0.12,0.77-0.35  l2.34-2.77c1.1,0.37,2.28,0.59,3.5,0.59s2.4-0.21,3.5-0.59l2.34,2.77c0.2,0.23,0.48,0.35,0.77,0.35c0.23,0,0.46-0.08,0.64-0.24  c0.42-0.36,0.48-0.99,0.12-1.41l-1.97-2.34c0.43-0.24,0.83-0.52,1.22-0.82l2.12,1.88c0.19,0.17,0.43,0.25,0.66,0.25  c0.28,0,0.55-0.11,0.75-0.34c0.37-0.41,0.33-1.05-0.08-1.41L38.1,45c0.48-0.53,0.91-1.11,1.28-1.74l2.6,0.82  c0.1,0.03,0.2,0.05,0.3,0.05c0.42,0,0.82-0.27,0.95-0.7c0.17-0.53-0.13-1.09-0.65-1.26l-2.34-0.74c0.43-1.16,0.67-2.42,0.67-3.73  c0-1.4-0.27-2.76-0.79-4.06c1.92-3.87,0.39-8.97,0.32-9.2c-0.13-0.41-0.5-0.7-0.93-0.71c-2.64-0.08-4.79,2.01-6.03,3.62  C31.25,26.61,28.75,26.61,26.52,27.36z M34.66,29.14c0.64-0.92,2.2-2.91,4.07-3.32c0.33,1.51,0.83,4.89-0.58,7.28  c-0.17,0.28-0.18,0.63-0.05,0.92c0.54,1.18,0.81,2.42,0.81,3.69c0,1.1-0.21,2.15-0.58,3.12l-2.44-0.77  c-0.53-0.17-1.09,0.13-1.25,0.65c-0.17,0.53,0.13,1.09,0.65,1.26l2.13,0.67c-0.24,0.37-0.52,0.71-0.81,1.03l-0.69-0.61  c-0.41-0.37-1.04-0.33-1.41,0.08c-0.37,0.41-0.33,1.05,0.08,1.41l0.51,0.45c-0.32,0.23-0.66,0.43-1.01,0.61l-1.21-1.44  c-0.36-0.42-0.99-0.48-1.41-0.12c-0.42,0.36-0.48,0.99-0.12,1.41l0.75,0.89c-0.67,0.16-1.37,0.26-2.09,0.26s-1.42-0.1-2.09-0.26  l0.75-0.89c0.36-0.42,0.3-1.05-0.12-1.41c-0.42-0.36-1.05-0.3-1.41,0.12l-1.21,1.44c-0.35-0.18-0.69-0.39-1.01-0.61l0.51-0.45  c0.41-0.37,0.45-1,0.08-1.41c-0.37-0.42-1-0.45-1.41-0.08l-0.69,0.61c-0.29-0.32-0.57-0.67-0.81-1.03l2.13-0.67  c0.53-0.17,0.82-0.73,0.65-1.26c-0.17-0.53-0.73-0.82-1.25-0.65l-2.44,0.77c-0.37-0.97-0.58-2.02-0.58-3.12  c0-1.27,0.27-2.52,0.81-3.69c0.13-0.3,0.12-0.64-0.05-0.92c-1.4-2.39-0.9-5.77-0.58-7.28c1.86,0.41,3.43,2.4,4.07,3.32  c0.27,0.39,0.77,0.53,1.21,0.35c2.19-0.92,4.71-0.92,6.9,0C33.89,29.67,34.39,29.53,34.66,29.14z"/><path d="M33.81,37.69c0.07,0,0.13-0.01,0.2-0.02c0.06-0.01,0.12-0.03,0.18-0.06c0.06-0.02,0.12-0.06,0.17-0.09  c0.06-0.04,0.11-0.08,0.15-0.13c0.19-0.18,0.3-0.44,0.3-0.7c0-0.27-0.11-0.53-0.3-0.71c-0.04-0.05-0.09-0.09-0.15-0.13  c-0.05-0.03-0.11-0.06-0.17-0.09c-0.06-0.02-0.12-0.04-0.18-0.05c-0.33-0.07-0.68,0.04-0.91,0.27c-0.18,0.19-0.29,0.44-0.29,0.71  c0,0.26,0.11,0.52,0.29,0.7C33.29,37.59,33.55,37.69,33.81,37.69z"/><path d="M25.8,35.77c-0.06,0.03-0.12,0.06-0.17,0.1c-0.06,0.03-0.11,0.07-0.15,0.12c-0.19,0.19-0.29,0.44-0.29,0.71  c0,0.26,0.1,0.52,0.29,0.7c0.04,0.05,0.09,0.09,0.15,0.13c0.05,0.03,0.11,0.07,0.17,0.09c0.12,0.05,0.26,0.08,0.38,0.08  c0.27,0,0.53-0.11,0.71-0.3c0.19-0.18,0.29-0.44,0.29-0.7c0-0.27-0.1-0.52-0.29-0.71C26.62,35.71,26.17,35.61,25.8,35.77z"/><path d="M52.16,21.17L33.76,6.32c-2.18-1.76-5.34-1.76-7.52,0L7.84,21.17c-1.22,0.98-1.98,2.38-2.14,3.93  c-0.17,1.55,0.28,3.08,1.26,4.29c0.35,0.43,0.98,0.5,1.41,0.15l1.77-1.43V54c0,0.55,0.45,1,1,1h37.72c0.55,0,1-0.45,1-1V28.12  l1.77,1.43c0.18,0.15,0.41,0.22,0.63,0.22c0.29,0,0.58-0.13,0.78-0.37c0.98-1.21,1.43-2.74,1.26-4.29  C54.13,23.55,53.37,22.16,52.16,21.17z M47.86,53H12.14V26.5L30,12.09L47.86,26.5V53z M52.01,27.28L30.63,10.03  C30.45,9.88,30.22,9.8,30,9.8s-0.45,0.07-0.63,0.22L7.99,27.28C7.72,26.67,7.62,26,7.69,25.32C7.8,24.3,8.3,23.38,9.1,22.73  L27.5,7.88c1.45-1.17,3.55-1.17,5,0l18.4,14.85c0.8,0.65,1.3,1.56,1.41,2.58C52.38,26,52.28,26.67,52.01,27.28z"/><text x="0" y="75" fill="#000000" font-size="5px" font-weight="bold" font-family="'Helvetica Neue', Helvetica, Arial-Unicode, Arial, Sans-serif">Created by Vectorstall</text><text x="0" y="80" fill="#000000" font-size="5px" font-weight="bold" font-family="'Helvetica Neue', Helvetica, Arial-Unicode, Arial, Sans-serif">from the Noun Project</text></svg>