<?xml version="1.0" encoding="UTF-8" standalone="no"?> <svg xmlns="http://www.w3.org/2000/svg" viewBox="0 0 64 64"><g id="Layer_19" data-name="Layer 19"><path d="M60.55,21.84l-28-18.67a1,1,0,0,0-1.1,0l-28,18.67a1,1,0,0,0-.45.83V60a1,1,0,0,0,1,1H19.92a1,1,0,0,0,1-1V46.12c.58-11.27,21.58-11.26,22.16,0V60a1,1,0,0,0,1,1H60a1,1,0,0,0,1-1V22.67A1,1,0,0,0,60.55,21.84ZM32,35.62c-7.21,0-13.08,4.71-13.08,10.5V59h-8.3V25.71L32,11.45,53.38,25.71V59h-8.3V46.12C45.08,40.33,39.21,35.62,32,35.62ZM59,59H55.38V25.17a1,1,0,0,0-.45-.83L32.55,9.42a1,1,0,0,0-1.1,0L9.07,24.34a1,1,0,0,0-.45.83V59H5V23.21l27-18,27,18Z"/><path d="M35.16,25.63a4.59,4.59,0,0,0-6.32,0l-3.26,3.08a3.48,3.48,0,0,0,2.46,6c1.42,0,2.5-.72,4-.71s2.65.62,4,.7a3.47,3.47,0,0,0,2.42-6Zm2.24,6.13a1.46,1.46,0,0,1-1.37.92A19.25,19.25,0,0,0,32,32c-1.59,0-2.68.61-4,.72a1.46,1.46,0,0,1-1-2.53l3.25-3.08a2.6,2.6,0,0,1,3.58,0L37,30.16A1.44,1.44,0,0,1,37.4,31.76Z"/><path d="M40.46,20.93c-3.53-.62-4.73,6.24-1.54,6.91C42.47,28.46,43.64,21.6,40.46,20.93Zm-.19,3.59c-.12.55-.46,1.24-.91,1.37-.11,0-.47-.63-.25-1.63.13-.56.46-1.25.92-1.38C40.14,22.91,40.49,23.51,40.27,24.52Z"/><path d="M25.07,27.84c3.34-.9,1.88-7.5-1.53-6.91C20.36,21.6,21.53,28.46,25.07,27.84Zm-1.34-3.32c-.22-1,.13-1.61.24-1.64.46.13.79.82.92,1.38h0c.12.55.1,1.34-.25,1.63C24.2,25.77,23.85,25.07,23.73,24.52Z"/><path d="M29.09,24.29c1.48,0,2.68-1.37,2.91-3.22.65,4.67,5.86,4,5.88-.66s-5.23-5.33-5.88-.66c-.66-4.67-5.87-4-5.88.66C26.12,22.58,27.43,24.29,29.09,24.29Zm5.82-5.76c1.26.17,1.26,3.6,0,3.76C33.66,22.13,33.66,18.69,34.91,18.53Zm-5.82,0c1.25.17,1.25,3.6,0,3.76C27.83,22.13,27.83,18.69,29.09,18.53Z"/></g></svg>