<svg width="59" height="68" viewBox="0 0 59 68" fill="none" xmlns="http://www.w3.org/2000/svg">
<path d="M58.0612 48.6663C57.2435 47.0998 55.8133 43.4721 54.955 42.194C54.0968 40.916 55.2819 39.8031 55.4047 35.0624C55.527 30.3214 52.6455 27.0236 52.1144 26.364C51.583 25.7044 50.2546 17.5832 48.9469 11.812C47.6393 6.04054 48.4155 5.01004 49.11 4.72128C49.8052 4.43283 50.6634 6.20568 50.8677 8.01941C51.072 9.83314 52.8293 10.1631 54.0968 9.50348C55.3639 8.84386 54.5053 5.17487 54.5053 5.17487C53.4007 1.00349 49.1757 -1.4518 45.2377 0.937237C42.502 2.5966 42.6205 6.35814 42.6193 9.19253C42.618 12.0291 44.4156 22.1403 44.7606 24.4079C45.1978 27.2858 41.6645 26.9751 39.3842 27.5178C35.7457 28.3838 32.6801 29.6206 30.4322 30.7335C28.1846 31.8467 22.5237 32.6093 21.42 32.4033C20.3164 32.197 19.5602 31.4343 19.5602 31.4343C19.724 30.7132 18.7837 29.7442 18.7837 29.7442C18.7837 29.7442 18.6407 29.2288 18.6002 28.3219C18.5593 27.4151 17.9666 26.8791 17.9666 26.8791C16.802 25.8074 15.9638 26.7967 15.6778 27.1263C15.3915 27.4563 14.7171 27.8481 14.1043 27.9923C13.4912 28.1365 11.7948 28.1571 11.3658 27.9923C10.9369 27.8275 9.28165 27.8069 9.28165 27.8069C9.03621 27.6211 8.63741 27.6829 8.331 27.6985C8.02428 27.714 7.04347 27.714 6.6453 27.6674C6.24681 27.6211 3.4725 26.6166 2.87446 26.6011C2.27704 26.5856 3.4571 28.3787 3.70223 28.7806C3.94767 29.1825 4.8518 30.4501 4.8518 30.4501C5.02088 31.1614 5.83293 31.8572 5.75594 32.0426C5.7484 32.0616 5.7374 32.1 5.72451 32.1529C5.37222 31.7827 4.99196 31.4426 4.60448 31.1411C3.56395 30.3331 2.37259 29.7639 1.0728 29.5439C1.04074 29.5385 1.02659 29.5883 1.05928 29.5943C2.2849 29.8206 3.41939 30.3496 4.41686 31.0967C4.89486 31.4546 5.31063 31.8594 5.69214 32.2949C5.66449 32.4236 5.6318 32.5935 5.59629 32.7913C5.25123 32.5139 4.8848 32.2651 4.47814 32.0886C4.4574 32.0794 4.43823 32.1088 4.4596 32.1203C4.85778 32.3358 5.23049 32.5758 5.58529 32.8515C5.57366 32.9143 5.56235 32.9799 5.55104 33.0474C5.50861 33.0274 5.46776 33.0049 5.42408 32.9872C4.68084 32.6819 3.81442 32.7187 3.02814 32.7076C3.00897 32.7076 3.00897 32.7374 3.02814 32.7377C3.7632 32.7523 4.519 32.7441 5.22892 32.9631C5.33923 32.9973 5.44419 33.0388 5.54444 33.0861C5.5061 33.3102 5.4665 33.5568 5.42784 33.8119C3.72391 33.6782 1.79277 34.127 0.498007 35.2726C0.478523 35.2897 0.505232 35.3249 0.525973 35.3087C1.87982 34.2611 3.71417 33.7948 5.41936 33.8734C5.41245 33.9197 5.40553 33.9663 5.39893 34.0132C4.86437 34.0712 4.33704 34.2155 3.93478 34.5952C3.91938 34.6098 3.9395 34.6377 3.9571 34.625C4.38858 34.3058 4.87349 34.1587 5.38762 34.0925C5.32414 34.5394 5.26883 34.9974 5.23489 35.3971C5.12772 36.6802 6.12363 37.7776 6.36938 38.1231C6.49634 38.3019 6.45455 38.5938 6.41683 38.9748C4.80089 38.8537 2.99074 39.2481 1.7582 40.3457C1.74249 40.36 1.76323 40.3879 1.78083 40.3759C3.12147 39.4142 4.77198 38.9793 6.40898 39.0582C6.39358 39.2284 6.38163 39.4161 6.38603 39.6177C5.35525 39.5543 4.26633 39.9061 3.44202 40.5188C3.41122 40.542 3.43699 40.587 3.4725 40.5708C4.40806 40.1346 5.34551 39.6788 6.38792 39.6972C6.39294 39.7977 6.40269 39.9023 6.41808 40.0091C3.78488 40.3844 1.14005 42.169 0.00272895 44.6135C-0.0107843 44.6423 0.0294373 44.6671 0.0457789 44.6385C1.38674 42.2866 3.7632 40.5378 6.42438 40.0579C6.43443 40.1213 6.44669 40.1857 6.46146 40.2513C6.47214 40.2982 6.48534 40.3426 6.4998 40.3854C5.44042 41.0139 4.65067 42.0508 4.04886 43.112C3.40651 44.2449 2.87509 45.5929 2.85624 46.9141C2.85592 46.9388 2.89143 46.9379 2.89332 46.9141C3.00111 45.6139 3.46088 44.3732 4.0916 43.2413C4.68588 42.1753 5.48724 41.1246 6.52996 40.4662C6.56422 40.5477 6.60539 40.6218 6.65159 40.6887C5.58592 41.5392 4.78015 42.641 4.39046 43.9719C4.38449 43.991 4.41497 44.0046 4.42283 43.9859C4.69844 43.3329 4.99448 42.6948 5.40145 42.1126C5.76254 41.5965 6.21099 41.1474 6.69369 40.7458C6.77037 40.8434 6.85837 40.9245 6.9517 40.9917C6.18899 42.1138 6.05794 43.5764 6.10539 44.9045C6.10634 44.9286 6.14216 44.9286 6.14279 44.9045C6.19559 43.5748 6.26127 42.1658 7.00576 41.0288C7.0925 41.0856 7.18269 41.1315 7.271 41.1683C7.16698 41.4751 7.16257 41.8108 7.33133 42.1021C7.34328 42.123 7.37942 42.1091 7.37125 42.085C7.26534 41.774 7.24177 41.4834 7.32851 41.1911C7.63523 41.3078 7.90235 41.3176 7.90235 41.3176C8.19304 41.6888 8.77065 42.1528 9.30176 42.1528C9.54311 42.1528 9.90295 42.0844 10.2232 42.0102C10.6641 42.9468 10.7081 43.9548 10.6129 44.997C10.6113 45.0167 10.6437 45.0211 10.6468 45.0018C10.8017 43.9773 10.7282 42.9243 10.2801 41.9969C10.3225 41.9867 10.364 41.9769 10.4042 41.9664C11.4824 44.0968 11.1877 46.5337 10.6009 48.7611C10.5909 48.7995 10.6465 48.8137 10.6591 48.777C11.4139 46.6367 11.5635 44.0005 10.4796 41.9477C10.6411 41.9065 10.7753 41.8694 10.8555 41.8466C11.2518 42.9969 11.4218 44.3209 11.3212 45.5229C11.3196 45.541 11.3467 45.54 11.3489 45.5229C11.4978 44.3266 11.3096 42.9785 10.9042 41.8324C10.9234 41.8266 10.9369 41.8228 10.9369 41.8228C10.9369 41.8228 10.9369 41.8228 11.1411 42.3589C11.3454 42.8945 11.9589 45.2446 12.7759 47.2231C13.5933 49.2017 14.2473 50.6858 14.4924 51.9641C14.7376 53.2419 14.1248 55.6737 13.675 57.1169C13.2253 58.5597 12.7351 61.2394 12.4488 62.1048C12.1631 62.9704 10.978 63.96 10.4051 64.0424C8.89448 64.2602 8.07551 65.1557 7.78985 65.9801C7.50355 66.8046 8.11636 67.7526 9.28165 67.8351C10.4463 67.9175 11.3457 68.3299 13.3074 67.423C15.269 66.5161 15.2281 64.2897 15.719 63.8779C16.2089 63.4656 17.5986 60.4562 18.7026 58.6834C19.8054 56.9108 20.9911 55.5916 21.6451 54.7259C22.2987 53.8603 22.6259 52.4586 23.1164 52.4174C23.6067 52.3759 24.5058 52.2114 24.7921 52.335C25.0784 52.4586 24.9964 52.4586 25.2415 53.0358C25.4869 53.6127 26.1818 56.7872 26.1409 57.4053C26.1 58.0237 26.2226 60.1262 26.0997 60.8271C25.9772 61.5279 25.8141 62.9296 25.6912 63.0532C25.5683 63.1765 25.2823 63.012 25.2823 63.012C24.5058 63.012 23.6884 63.5892 23.4024 64.7845C23.1161 65.9798 24.1786 66.0213 24.1786 66.0213C24.3832 66.6397 26.0589 66.3098 26.0589 66.3098C26.8357 66.7634 27.8574 66.5161 28.9199 65.5681C29.9824 64.6197 30.6776 62.1463 30.8002 61.0331C30.9224 59.9202 31.0044 57.6938 31.3313 56.5812C31.6581 55.4683 32.3532 53.3243 32.7621 51.2633C33.1706 49.202 33.8246 49.7792 35.5003 49.2844C37.1759 48.79 40.8544 48.8308 40.8544 48.8308C41.0178 50.0265 43.838 52.0874 44.0831 52.665C44.3285 53.2419 43.6337 56.21 43.6337 56.21C43.1843 57.2405 42.816 57.1169 40.8544 57.4053C38.8927 57.6938 39.5464 59.9202 39.5464 59.9202C40.4307 60.9009 42.3364 60.5272 43.47 60.4562C44.1239 60.4147 44.4511 59.6314 45.3505 58.7246C46.2496 57.8177 48.6198 53.6542 49.2738 52.4586C49.6908 51.6966 49.4268 51.069 49.1804 50.7137C50.0588 51.7042 51.0707 52.6079 52.2165 53.2419C53.4836 53.9427 54.3827 53.5715 54.3827 53.5715C54.3827 53.5715 54.4648 53.9427 54.4236 54.5611C54.3831 55.1792 54.0968 58.7658 53.9742 59.4254C53.8513 60.085 53.5653 60.3735 52.9114 60.5386C52.2571 60.7038 51.6037 60.9919 51.2357 62.1872C50.8677 63.3828 52.0531 63.3004 52.0531 63.3004C52.7479 64.4957 54.3827 63.7128 54.3827 63.7128C55.4047 64.4545 56.3444 63.5064 56.9166 62.9296C57.4889 62.3523 57.7752 61.2394 58.0203 60.3735C58.2655 59.5078 58.102 55.2207 58.7152 53.1594C59.3283 51.0982 58.8783 50.2325 58.0612 48.6663Z" fill="#4E4B4C"/>
</svg>
