<svg width="512" height="512" xmlns="http://www.w3.org/2000/svg" fill="none">

 <g>
  <title>Layer 1</title>
  <g stroke="null" id="svg_3">
   <path stroke="null" id="svg_1" fill="#181818" d="m151.24884,4.34227c-25.23946,13.37962 -46.20746,41.31942 -58.24487,77.91655c-4.07702,12.78951 -4.65953,13.183 -15.53191,18.49541c-9.51331,4.72227 -20.968,14.56031 -35.14104,30.49774c-7.57172,8.26388 -21.9388,36.20364 -27.56914,53.32173c-27.18091,81.26149 -16.30855,173.93537 28.3457,240.43891c10.4841,15.74158 38.05342,43.87838 53.00282,53.91346c30.67555,20.85555 66.59314,32.26854 101.3459,32.0717c23.29787,-0.19684 60.38129,-7.47809 82.12565,-16.13527c44.65296,-17.90488 85.8132,-60.2085 104.45094,-107.82294c21.35826,-54.502 13.39668,-107.03755 -18.05562,-119.23593c-8.15364,-3.14951 -19.80198,-3.14951 -38.82978,-0.39369c-3.30066,0.59053 -3.68874,-0.39369 -3.10662,-5.31281c1.94238,-14.36367 1.5543,-15.54473 -7.57152,-20.26701c-16.11324,-8.46033 -39.60594,-2.95068 -46.78938,11.0193c-1.35828,2.36014 -4.65894,4.91912 -7.37748,5.50965c-2.71854,0.59053 -7.18344,2.1633 -9.70794,3.34436c-4.07682,2.1633 -5.24106,1.57475 -11.06622,-5.50965c-3.68874,-4.32859 -6.60132,-8.26348 -6.60132,-8.85402c0.19404,-0.59053 7.18344,-9.05086 15.72714,-18.69225c17.86158,-20.07016 25.62714,-32.66183 30.09204,-48.20577c3.4947,-12.00233 2.71854,-19.67588 -3.10662,-37.18746l-3.88278,-11.412l4.85496,-13.183c3.88278,-10.42817 4.85298,-16.72441 4.85298,-30.30089c0,-22.03701 -2.5245,-27.15278 -12.23244,-26.56244c-8.34768,0.59033 -28.9278,10.03468 -37.08144,17.31474c-3.10662,2.75463 -5.82516,4.91912 -6.21324,4.91912c-0.38808,0 -3.68874,-2.16449 -7.37748,-4.72227c-3.68874,-2.36114 -11.84238,-6.49308 -18.05562,-8.85421c-17.27946,-6.68972 -16.89118,-6.29623 -19.22105,-21.05319c-3.4947,-22.4305 -14.17284,-48.40277 -20.38568,-49.38658c-1.35907,-0.19676 -6.79516,1.77082 -11.64893,4.3287zm9.51331,13.18286c4.07722,5.31257 10.28986,26.75925 11.64893,40.72923c1.55311,16.13427 1.16483,15.93743 18.83257,21.24984c6.40688,1.771 17.28005,7.28026 24.07541,11.80569c10.67814,7.28006 13.00662,8.06704 15.72516,6.09959c22.9086,-17.11809 36.30528,-24.595 39.4119,-21.44688c2.33046,2.36114 0.77616,28.92358 -2.13444,36.20364l-2.33046,5.31261l-6.21324,-3.93529c-19.998,-12.39582 -38.63574,8.06723 -30.09204,33.05572c2.71656,7.87039 1.74636,11.80549 -2.5245,9.2477c-1.16424,-0.78718 -4.65894,-0.59033 -7.9596,0c-4.85496,1.18047 -5.82516,2.16429 -5.24304,6.49288c0.58212,4.72227 1.5543,5.31261 9.31986,5.90294c13.20264,0.98362 13.9788,3.34476 4.07682,12.19898c-17.08542,15.15045 -39.41249,22.4311 -69.11725,22.03741c-22.90959,0 -26.21025,0.59053 -26.21025,5.7065c0,5.50766 7.37768,7.67295 26.21025,7.67295c34.9468,0 61.93381,-10.03508 81.54175,-30.30109c6.79536,-6.88657 12.81456,-14.36347 13.39668,-16.52776c0.77616,-2.55798 -0.9702,-7.28006 -5.62914,-14.16662c-5.43708,-8.06723 -6.79536,-12.19918 -6.79536,-19.67608c0,-19.47903 11.4543,-17.51158 21.55032,3.73845c5.04702,10.42837 6.40728,15.54414 6.40728,25.77546c0.19404,7.08341 -0.97218,15.93763 -2.5245,19.67588c-3.88278,9.44455 -17.08542,27.94055 -30.67614,43.08961l-11.4543,12.59406l-11.64834,0.19684c-8.15562,0.19684 -14.17284,1.57277 -20.96879,5.11397c-12.03721,6.10018 -14.9494,10.42877 -10.4841,15.15104c3.10642,3.14951 3.88298,2.95266 12.81397,-1.96645c15.72635,-8.65717 27.37469,-6.69072 38.63495,6.29504c5.82516,6.69072 5.63112,8.46033 -2.13444,18.8891c-3.68874,4.72227 -9.12582,13.1826 -11.84436,18.49541l-5.24106,9.64139l-13.0086,-10.62561c-23.49171,-19.87133 -49.896,-29.11903 -70.66996,-24.79045c-23.68615,4.72227 -43.29527,19.08594 -59.4097,43.28586c-8.93079,13.37945 -9.90158,20.66069 -2.91218,21.64492c3.30046,0.39369 5.63033,-1.7716 10.4841,-9.64139c8.93079,-14.75736 24.65694,-30.89262 35.9176,-36.79397c13.00801,-6.49387 32.03462,-8.06863 45.81918,-3.5432c12.81397,4.33057 28.73416,15.15104 42.90739,29.51471c7.18344,7.08441 12.03642,10.62561 13.9788,9.83824c1.55232,-0.59053 5.4351,-6.49387 8.54172,-13.1826c8.93178,-19.08594 23.68674,-39.1561 32.03442,-43.68153l7.18344,-3.9349l8.93178,4.72227c4.85298,2.75582 9.31986,6.10018 9.90198,7.28125c0.58212,1.37592 -0.77814,7.67295 -2.91258,13.96799c-2.13642,6.29703 -10.29006,31.28631 -17.86158,55.68307c-7.76556,24.39875 -16.11522,50.96079 -18.63774,59.02942c-5.82516,18.29856 -5.82516,21.24924 -0.19602,22.62715c8.15562,2.1633 31.06422,-2.95266 45.4311,-10.03508c43.87878,-21.64293 79.4079,-86.18001 65.62314,-119.62962c-3.68874,-9.05086 -12.03642,-13.37945 -23.88078,-12.78891c-7.37748,0.58854 -9.12384,0 -9.70794,-2.75582c-0.9702,-5.11596 11.84436,-9.83824 26.9874,-10.03508c11.06622,-0.19684 13.59072,0.59053 19.80396,5.31281c21.55032,16.52895 22.13244,61.38956 1.35828,106.84071c-9.31788,20.66069 -20.38608,36.79397 -35.52912,52.53555c-16.11522,16.92065 -27.18144,24.98729 -48.53772,35.61291c-39.79998,19.67647 -95.52094,24.98729 -135.7098,12.98576c-59.4097,-18.10172 -109.11186,-74.37532 -127.94443,-145.20744c-9.12499,-34.63067 -11.4548,-71.62149 -6.60106,-105.65964c9.12497,-64.34123 34.7527,-111.36653 69.89374,-129.07496c11.06662,-5.50925 13.9788,-6.09959 23.29787,-5.11576c20.77396,2.16449 39.80057,17.11809 39.80057,31.48156c0,17.11809 -25.04522,17.51158 -40.57713,0.59033c-10.67814,-11.4122 -16.69675,-3.34496 -15.14363,20.46286c0.97079,18.8889 7.18344,33.44901 14.17284,33.44901c6.60112,0 7.57192,-4.13194 3.10642,-13.1828c-4.65953,-9.2477 -7.37768,-24.20131 -4.46549,-24.20131c1.16503,0 5.43629,1.7708 9.31927,3.9351c15.53191,8.26388 31.25806,6.68992 40.38309,-4.32859c17.66754,-21.25003 -6.40688,-56.07656 -41.35388,-60.2085c-4.46549,-0.39349 -8.54251,-1.37731 -8.93079,-2.16429c-0.97079,-1.57396 3.88298,-16.7246 9.51331,-28.92358c5.82437,-12.78931 21.9388,-32.46519 33.58773,-41.12276c10.29006,-7.67353 10.87238,-7.87029 13.59052,-4.52539zm150.2721,235.3243c0.9702,0.98422 -0.97218,20.85555 -5.049,49.77973c-3.68874,26.3652 -6.9894,51.94502 -7.37748,56.86413c-0.58212,8.26348 -0.19404,8.85402 4.66092,9.44455c6.21126,0.78539 6.01722,0.98223 10.48212,-31.08946c1.74834,-13.57629 4.0788,-26.16836 4.85496,-27.93996c0.9702,-1.96645 5.24106,-4.52543 9.5139,-5.70451c6.79536,-2.16529 8.15364,-1.96844 11.64834,1.17908c5.62914,5.11596 6.60132,14.36367 2.91258,28.72733c-8.15562,32.0717 -29.89998,61.58641 -56.30328,76.34376c-10.29006,5.90135 -29.12382,11.60785 -31.25826,9.64139c-0.9702,-1.18107 10.09602,-37.3845 33.3927,-109.59653c4.66092,-14.56051 8.5437,-27.74311 8.5437,-29.31588c0,-1.57475 -4.07682,-6.88756 -8.93178,-11.60984c-8.73576,-8.65717 -8.73576,-8.85402 -5.24106,-12.78891c1.9404,-2.16529 5.24106,-4.72227 7.37748,-5.7065c4.4649,-1.96645 18.05562,-0.98422 20.77416,1.7716z"/>
   <path stroke="null" id="svg_2" fill="#181818" d="m168.91598,118.46286c-2.91218,3.54181 -1.35907,8.46072 3.30066,10.23153c7.37748,2.75463 14.75516,9.2477 17.4733,15.74078c2.13563,5.11576 3.68894,6.68972 6.9894,6.09959c10.4841,-1.57416 3.68874,-21.05339 -10.28986,-28.72694c-10.4841,-5.90274 -14.75536,-6.68972 -17.4735,-3.34496z"/>
  </g>
 </g>
</svg>