<svg width="104" height="63" viewBox="0 0 104 63" fill="none" xmlns="http://www.w3.org/2000/svg">
<path d="M103.323 11.8399C103.257 11.3105 102.314 10.6585 101.97 10.5572C101.622 10.4545 100.432 9.44254 98.4198 9.18654C96.4118 8.93187 94.9585 7.90652 94.8825 7.63986C94.8038 7.37319 94.5118 5.86921 94.0945 5.32521C93.6772 4.78254 89.0891 3.0172 88.6665 2.65053C88.2411 2.2812 86.6758 1.86786 82.9771 2.07319C79.2811 2.27852 78.4158 6.37319 78.1452 6.53719C77.8758 6.70252 75.8825 8.20654 74.8772 9.21987C73.8692 10.2345 71.8558 13.2478 70.5105 15.1972C69.1651 17.1465 65.9465 18.4652 62.5198 19.5345C59.0918 20.6039 29.6132 18.5905 26.5252 18.9865C23.4358 19.3825 21.2598 20.9745 20.7212 21.3052C5.22383 26.6599 1.27048 0.065182 1.27048 0.065182C1.27048 0.065182 0.399809 -0.145459 0.0358093 0.190541C-0.329524 0.527874 1.89049 23.6038 16.5145 25.5292C16.9518 25.5465 16.6305 27.0279 16.4425 27.2839C16.2572 27.5399 15.2278 29.1692 14.7665 29.6772C14.3078 30.1865 14.1492 31.9385 14.0265 32.8105C13.9052 33.6839 14.6465 37.1399 14.9558 38.2065C15.2652 39.2745 15.3772 43.0559 15.3598 43.5799C15.3372 44.1079 14.4185 46.2159 13.6292 47.2905C12.8385 48.3652 10.6958 50.0212 10.1558 50.6665C9.61583 51.3132 10.0078 52.2425 9.9945 52.5052C9.98383 52.7679 11.7212 59.9532 11.8838 60.3119C12.0452 60.6692 12.6345 61.5465 13.4172 61.5132C14.2012 61.4785 17.3798 61.6465 18.2265 61.2039C19.0732 60.7599 18.8185 60.4105 18.8532 59.5332C18.8878 58.6559 17.3358 57.9785 16.8932 57.9625C15.1758 57.6732 13.8625 52.3545 15.0331 51.3519C16.2038 50.3505 24.3625 46.0278 24.3625 46.0278C24.3625 46.0278 22.0758 48.3772 21.4385 49.0252C20.8011 49.6732 20.9358 50.4012 21.0185 50.8039C21.1025 51.2065 21.7852 52.0932 21.7852 52.0932C21.7852 52.0932 25.0558 56.0012 25.3945 56.3665C25.7292 56.7319 27.4132 58.6412 28.2798 58.6665C29.1452 58.6919 32.6158 59.0025 33.3025 58.5252C33.9878 58.0479 33.9865 56.0532 32.5852 55.3732C31.7452 54.9265 31.1571 55.0132 29.7705 54.5185C28.3825 54.0252 27.1691 52.5265 26.4678 51.6319C25.7651 50.7372 27.2518 49.3612 27.5292 49.0212C27.8078 48.6799 31.8665 45.9065 32.3318 45.3092C32.7971 44.7119 33.3852 43.1532 33.4932 42.6319C34.9185 38.9652 38.2932 39.0439 39.3425 39.0852C40.3958 39.1265 46.5758 42.7972 49.6905 43.9759C52.1718 44.9132 60.1238 45.5665 63.2598 45.7945C64.0678 45.8518 64.7425 46.4052 64.9758 47.1812C65.1105 47.6305 65.2438 48.1265 65.3225 48.5492C65.5265 49.6412 66.0651 52.0052 66.1318 52.5345C66.1971 53.0639 66.5132 56.1505 66.7492 56.8638C66.9852 57.5745 67.7065 60.7399 69.6385 61.4572C71.5718 62.1732 75.2905 62.3265 75.7865 61.3812C76.5958 59.6039 75.5865 58.3105 74.6345 58.3612C77.0505 57.8398 76.5638 60.7665 76.5638 60.7665L77.2225 60.7932C77.2225 60.7932 78.1225 60.2839 78.0718 59.4025C78.0185 58.5225 77.6012 57.6745 77.1758 57.3399C76.7505 57.0052 75.6291 57.1105 74.7318 57.1799C73.8345 57.2505 73.3465 56.4745 73.2945 55.7185C73.2412 54.9625 73.6251 51.8652 73.6691 50.7252C73.6998 49.9705 74.1705 47.7719 74.4865 46.3705C74.6638 45.5812 75.1865 44.9185 75.9118 44.5625C78.2238 43.5758 81.5078 39.1759 82.1705 37.9719C82.8331 36.7692 83.4465 34.5972 83.4465 34.5972C83.4465 34.5972 83.9598 30.8385 84.1345 30.3199C84.3651 31.4545 84.1958 33.1319 84.2278 34.8079C84.4718 34.8639 84.7292 34.9105 84.9265 34.9185C85.4518 34.9399 86.6838 34.9012 87.5825 34.4092C88.4785 33.9172 88.3598 32.5065 88.2358 31.2732C88.1065 30.0372 88.4291 21.8812 88.6398 21.0092C88.8505 20.1385 89.2278 19.0492 90.8078 18.8825C92.3878 18.7145 97.9772 18.1305 99.2172 17.9159C102.918 17.0759 102.573 13.0412 102.573 13.0412C102.573 13.0412 103.391 12.3705 103.323 11.8399Z" fill="#4E4B4C"/>
</svg>
