<svg width="73" height="55" viewBox="0 0 73 55" fill="none" xmlns="http://www.w3.org/2000/svg">
<path d="M8.76934 24.3872C6.89467 25.7299 4.60801 29.7378 4.60801 34.8112C4.60801 39.8845 4.85867 40.7192 4.40801 44.2512C3.81734 50.4192 0.377333 53.6005 0 53.7512C1.31867 54.0525 2.47868 52.2672 2.47868 52.2672L3.03066 53.9139C3.03066 53.9139 2.84534 52.3165 4.07201 51.8539C4.14134 53.1272 4.95202 54.0298 4.95202 54.0298C4.95202 54.0298 4.88136 52.0165 5.46003 51.7392C5.62269 52.8258 6.892 53.9045 7.196 54.0058C6.94133 52.7098 7.61201 51.3445 7.61201 51.3445C7.61201 51.3445 8.23734 53.3819 9.14001 53.8205C8.76934 52.4792 8.59733 51.6778 9.232 51.2752C9.672 52.2712 9.97334 53.0339 11.708 53.8205C10.5747 52.1085 11.3093 48.9179 11.3093 48.9179C11.3093 48.9179 10.9907 51.8085 13.004 53.6592C12.332 51.1792 13.844 47.7005 13.844 47.7005C13.844 47.7005 13.5653 53.0045 14.7627 53.9139C14.5493 52.4405 15.596 51.2298 15.596 51.2298C15.596 51.2298 16.036 52.9418 17.4534 53.7712C16.6267 52.5218 16.892 49.7312 17.1934 49.7298C17.1934 49.7298 18.0267 53.2552 19.3534 54.0499C19.0587 52.5805 19.8587 51.2445 19.8587 51.2445C19.8587 51.2445 20.5 53.6618 21.2174 54.2418C21.0627 53.0272 21.6174 51.2098 21.6174 51.2098C21.6174 51.2098 22.2494 53.2059 22.7854 53.7539C22.7974 52.6112 23.1334 51.1578 23.588 50.3392C23.6894 50.6432 23.588 53.1579 24.44 53.7192C24.3693 52.5552 25.224 51.9418 25.224 51.9418C25.224 51.9418 25.096 53.5392 26.148 54.2418C26.276 53.2538 27.444 51.7592 27.444 51.7592C27.444 51.7592 27.7867 54.2218 29.0574 54.5725C28.656 53.4605 28.8653 51.5232 28.8653 51.5232C28.8653 51.5232 29.5973 53.6672 30.7293 54.3112C30.468 53.0738 30.5867 51.8805 31.2413 51.3539C31.5493 52.7605 33.448 54.2072 33.448 54.2072C33.448 54.2072 32.5067 51.5059 33.5174 51.0885C33.448 52.0285 34.128 53.1619 35.26 53.9805C34.9814 52.4819 35.94 50.9139 35.94 50.9139C35.94 50.9139 36.2627 53.7565 38.1093 53.9312C37.2387 51.8232 39.0133 50.7445 39.0133 50.7445C39.0133 50.7445 39.3894 52.2032 40.4867 53.6845C40.2774 52.1685 41.4453 50.6352 41.4453 50.6352C41.4453 50.6352 42.1067 53.0045 43.1174 53.7192C42.6654 52.0459 43.2174 50.9712 43.6227 50.5658C43.588 52.1685 45.2787 53.8938 45.2787 53.8938C44.7907 52.0285 45.052 50.8792 45.7133 50.6352C45.7133 50.6352 46.4107 53.3218 47.404 53.8405C46.8813 52.3912 47.352 50.4085 47.352 50.4085C47.352 50.4085 48.5013 53.4925 49.704 53.8405C49.1467 52.2032 49.3307 51.0965 49.7733 50.1125C49.8827 50.9845 50.052 52.4472 51.516 53.6672C51.3587 52.1685 51.9507 50.9832 51.9507 50.9832C51.9507 50.9832 52.596 52.8298 54.06 53.8058C53.5014 52.3072 54.356 50.4605 54.356 50.4605C54.356 50.4605 54.8787 53.0739 56.1653 53.6872C55.9413 52.1165 56.956 50.8805 57.2827 50.9472C57.3667 51.0179 57.2307 51.8645 57.3453 52.6232C57.4493 53.3139 58.032 53.8312 58.7307 53.8472C59.6307 53.8699 60.9227 53.8965 61.244 53.6458C61.4907 53.4538 61.6974 52.6619 61.1507 52.1859C60.604 51.7099 59.9987 51.5338 60.0174 51.0005C60.036 50.4672 60.5307 48.3085 60.936 46.7872C61.3414 45.2645 62.6627 42.3432 62.6627 42.3432C62.6627 42.3432 62.4174 43.3272 62.3614 45.2058C64.4867 43.2978 64.1814 39.5285 64.1814 39.5285C64.1814 39.5285 64.828 39.4872 64.8933 42.1192C66.496 39.7445 65.6013 35.1472 65.6013 35.1472L66.6187 38.3565C66.6187 38.3565 67.9453 34.9925 66.596 30.8658C67.0333 31.2605 67.932 32.3445 68.1467 33.6205C68.7013 30.6112 67.78 28.4739 67.2667 27.7192C65.7867 25.5445 66.2733 24.2738 66.2733 24.2738C66.0653 24.4765 66.6293 26.2498 67.8453 27.3032C67.6373 25.1152 67.7213 22.9458 68.276 21.7658C68.832 20.5845 71.1854 19.2832 71.5894 18.8765C71.9974 18.4738 72.0987 17.0525 72.0987 16.5445C72.0987 16.0352 71.8907 16.0058 72.196 15.5978C72.7987 15.5978 73.1134 14.0058 72.6054 13.9045C72.0987 13.8032 70.1707 13.0939 69.764 12.7885C69.36 12.4845 68.8627 11.2099 68.8507 10.5552C68.8387 9.90186 68.8507 8.72986 68.648 8.01919C68.444 7.30986 68.2427 6.80317 67.7347 6.59784C67.228 6.39517 64.184 4.87251 64.184 4.87251C64.184 4.87251 63.968 3.29517 64.1414 2.43117C64.3147 1.56717 64.6907 0.813854 64.6907 0.813854C64.6907 0.813854 64.284 0.609855 63.98 0.915189C63.676 1.21919 62.2547 3.45253 62.2547 3.45253C62.2547 3.45253 61.8294 2.15251 62.1534 0.00050781C61.9254 0.00050781 61.6467 -0.0208138 61.4587 0.21252C61.1427 0.603186 60.9613 1.3845 60.8347 1.8285C60.6333 2.53917 60.124 4.26451 59.8187 4.66851C59.5133 5.07651 56.808 5.49784 54.7427 9.13518C54.0333 10.3845 51.4587 15.3499 50.076 18.0552C49.5107 19.1605 48.4147 19.8752 47.176 19.9499C44.844 20.0885 18.74 21.2725 17.904 21.3152C13.7427 21.5165 10.644 23.0445 8.76934 24.3872Z" fill="#4E4B4C"/>
</svg>
