<svg width="143" height="98" viewBox="0 0 143 98" fill="none" xmlns="http://www.w3.org/2000/svg">
<path d="M7.87428 61.8119C10.4405 61.6372 12.0649 61.8865 15.079 61.6678C18.0914 61.4465 24.0467 60.1225 29.6331 55.5639C35.2211 51.0025 36.5425 48.7225 36.5425 48.7225L36.5711 48.7465C39.1143 44.6479 41.6649 43.8265 43.1034 43.1332C52.0623 38.5038 72.3149 32.9625 73.4555 32.7745C74.5987 32.5812 79.9706 31.3478 83.9331 30.6758C87.8957 30.0038 100.752 25.6505 103.365 24.0078C105.979 22.3638 113.621 12.3785 114.178 11.9732C113.527 5.94252 116.229 0.21186 116.854 0.00386047C117.479 -0.205473 118.187 8.1705 120.703 8.57716C122.396 8.62783 124.087 10.4652 125.658 10.6719C127.229 10.8785 129.746 12.8052 130.187 13.4825C130.629 14.1585 131.499 16.9612 131.499 16.9612C131.499 16.9612 139.627 19.3038 140.706 19.6265C141.785 19.9478 142.358 21.0838 142.167 21.8518C141.979 23.5585 136.705 27.4385 136.705 27.4385C136.705 27.4385 137.75 27.2945 137.729 28.3572C137.709 29.4198 136.13 29.8638 134.991 29.9105C133.853 29.9572 126.615 29.5572 125.658 30.2945C124.701 31.0305 122.896 35.2785 122.799 38.2945C122.761 39.4545 122.632 39.8598 121.459 41.7372C121.703 42.5038 122.122 45.8852 120.427 47.5799C121.011 44.6065 119.677 44.6065 119.677 44.6065C119.677 44.6065 119.816 48.1065 118.372 49.8012C118.44 48.3225 118.546 47.3985 118.076 47.0652C116.826 49.0145 116.28 50.0038 116.194 51.1252C115.979 53.9198 113.453 57.1278 112.828 57.4105C109.463 58.9318 107.749 62.6825 107.749 62.6825C107.749 62.6825 105.843 66.4905 105.843 69.9198C105.843 73.3532 105.461 82.3038 105.461 82.3038C105.461 82.3038 106.224 86.4958 106.605 87.4492C106.988 88.4025 106.386 91.0238 111.532 91.6358C112.792 91.5065 114.599 91.8198 115.427 92.5798C117.094 94.1078 116.296 96.3678 115.983 96.5518C115.844 95.0518 115.854 94.4558 114.53 93.6145C113.205 92.7745 111.43 93.0665 111.561 93.1105C113.161 93.6438 114.614 93.6692 114.479 96.4012C114.5 97.3785 113.02 97.6705 113.02 97.6705C113.02 97.6705 105.498 98.2092 103.812 96.9705C102.125 95.7318 101.213 91.6132 100.509 91.0678C99.805 90.5212 98.4138 89.5425 98.4138 88.9718C98.4138 88.4025 98.4138 86.6865 98.4138 86.6865L97.6665 82.0718C97.6665 82.0718 97.3858 82.9412 94.7175 83.0252C96.3233 81.7318 97.2347 79.4705 97.1607 79.0398C96.8471 79.8078 95.6238 80.3545 94.8233 80.4412C96.3154 79.2985 96.6681 76.5612 96.5581 75.8852C96.2519 73.9958 96.0097 72.3932 95.9367 71.6345C95.6873 69.0452 93.6039 66.5038 90.6039 65.5398C90.4034 65.4198 89.9191 65.4225 89.2706 65.4225C85.5842 65.1305 86.0129 66.4692 86.9227 66.9612C86.0238 66.9292 85.3123 66.3438 85.0091 65.8625C84.1727 66.2598 84.5591 66.8252 85.0717 67.3585C83.9634 67.0545 83.5451 66.6572 83.4195 66.0412C82.5935 66.3438 82.8025 67.0865 83.5982 67.5198C82.191 67.5252 81.8175 66.4905 81.6493 66.4905C81.5457 66.4905 80.5519 66.5412 79.9165 66.4905C79.5342 66.4598 77.4378 66.0038 77.4378 66.0038C77.4378 66.0038 76.8577 66.2705 77.8747 67.5212C76.2301 67.1185 74.5733 65.8158 74.5733 65.8158C74.5733 65.8158 75.2842 68.1612 76.2571 68.2532C72.6774 67.9132 71.3025 64.1078 71.3025 64.1078C71.3025 64.1078 67.105 71.5612 65.8358 72.7785C64.5665 73.9958 61.6571 75.6025 60.8831 76.3998C58.7238 78.6212 57.9451 81.3612 58.9899 82.2745C60.0347 83.1865 65.8858 87.7319 65.8858 87.7319C66.393 87.7985 67.5894 87.8705 69.0061 87.4785C70.4222 87.0878 71.2102 87.7772 71.5733 88.2945C71.9362 88.8118 72.3165 91.4132 69.0747 91.6398C68.3118 91.6398 64.8837 91.5772 63.9301 91.5772C62.9774 91.5772 58.2159 87.6372 56.691 86.3038C55.1675 84.9705 51.9993 82.4518 51.4842 81.9878C50.9691 81.5238 50.7034 80.4918 51.2946 79.8932C51.8858 79.2945 53.8342 76.5905 54.5946 75.8265C56.1774 74.5865 56.8586 71.0798 56.3097 70.3012C55.0383 67.6905 51.4842 65.1585 51.1675 65.3505C50.4987 66.6958 49.6691 67.0865 49.0831 68.5145C48.8175 69.1612 48.6743 71.3692 45.7883 72.9065C46.6514 71.6385 46.7143 71.5132 46.9331 71.0238C46.4019 71.4692 45.6941 72.0492 45.4274 72.6972C45.1607 73.3452 43.9529 73.9878 42.6566 74.3358C43.4946 73.6998 44.1097 73.3825 44.2769 72.7025C44.2769 72.7025 40.8097 74.7198 39.7353 75.0678C38.6691 75.5185 32.1919 76.2812 31.3519 76.6638C30.5045 77.0532 27.131 78.2318 26.1774 80.9958C25.8675 81.8958 24.6858 89.4798 24.6858 89.4798C24.6858 89.4798 26.0191 90.1785 26.591 90.5572C27.1602 90.9412 27.8525 92.5052 27.143 93.3838C26.4342 94.2638 25.0675 94.1145 24.4946 94.1145C20.6217 94.1345 20.0498 91.8918 19.8586 90.7492C19.667 89.6078 20.4315 87.9572 20.6206 87.3852C21.2977 85.3518 23.2353 74.2505 23.7326 73.9212C24.8441 72.8572 28.705 73.1905 30.2113 70.8745C30.5919 70.4158 32.4482 65.8532 33.2738 63.7532C30.7467 65.3145 28.8482 66.4305 28.8482 66.4305C26.1399 67.8119 22.9654 69.2038 20.2175 69.9825C19.8925 70.0745 18.8055 70.3465 20.0525 72.0238C18.991 71.7385 18.2191 70.8985 18.3862 70.4158C17.7399 70.5238 16.8233 70.8358 15.6862 70.6718C15.4034 70.6305 13.6143 71.9932 12.0941 71.9825C13.5941 71.1905 13.1561 70.8025 13.1561 70.8025C13.1561 70.8025 11.7191 71.6692 7.07324 71.5865C8.4326 71.3478 9.255 71.0478 9.87006 70.7918C6.9498 70.7158 4.07844 70.4705 2.36125 70.0478C-2.41739 68.8705 0.375317 62.3265 7.87428 61.8119Z" fill="#4E4B4C"/>
</svg>
