<svg width="35" height="46" viewBox="0 0 35 46" fill="none" xmlns="http://www.w3.org/2000/svg">
<path fill-rule="evenodd" clip-rule="evenodd" d="M18.0369 0.00782182C17.4543 0.0508214 16.6796 0.133595 16.3323 0.193257C15.7628 0.289469 15.3358 0.405572 14.2304 0.770262L13.254 1.09195L12.7576 1.11533C12.4861 1.1285 12.2147 1.15511 12.1583 1.175C12.0722 1.2016 12.0095 1.18494 11.6852 1.04573C11.48 0.959461 11.2646 0.856796 11.205 0.820246C10.9304 0.650935 9.85476 0.32602 9.32179 0.256414C8.93446 0.203202 8.34865 0.209913 8.14667 0.269575C7.74942 0.388898 6.05475 1.33409 5.6245 1.67916C5.46571 1.80494 5.05532 2.09034 4.71091 2.3126C4.36677 2.53458 3.93653 2.81328 3.7544 2.9326C3.20507 3.29085 3.01972 3.40023 2.33117 3.75847C1.58308 4.14976 0.98734 4.53434 0.527326 4.92241C0.199548 5.20084 0.0836726 5.34032 0.0308312 5.52925C-0.0485649 5.80794 0.0340513 6.41799 0.1797 6.60719C0.255878 6.70985 0.262582 6.73968 0.262582 7.12453C0.262582 7.92701 0.355122 8.23525 0.75559 8.76926C1.02382 9.12078 1.1861 9.29654 1.61956 9.68784C1.70244 9.76094 1.85453 9.91682 1.95726 10.0297C2.29148 10.3909 2.54978 10.5269 3.47652 10.8155C3.80403 10.9217 4.05241 10.9746 4.26753 10.9945C4.43973 11.0112 4.68463 11.0442 4.81043 11.0644L5.03869 11.1041L5.01562 11.3562C5.00221 11.4919 4.92281 11.9563 4.8402 12.3874C4.75732 12.8185 4.68784 13.2762 4.68463 13.4054C4.68114 13.6145 4.69106 13.6543 4.77717 13.7768L4.86997 13.9131L4.81686 14.5199C4.73747 15.4715 4.72111 15.8663 4.74739 16.2875C4.77395 16.7118 4.81364 16.8016 4.97914 16.8016H5.06525L5.03869 17.1894C4.96922 18.2141 5.01562 19.1628 5.18112 20.0647C5.23745 20.3665 5.31684 20.5057 5.41287 20.4692C5.46893 20.4461 5.47242 20.4592 5.55503 21.1459C5.65106 21.9451 5.90588 22.7476 6.07138 22.7906C6.13441 22.8073 6.16418 22.857 6.22024 23.0459C6.34953 23.4706 6.65719 24.0642 6.81277 24.1868C6.84254 24.2102 6.88894 24.23 6.91872 24.23C6.95198 24.23 7.00804 24.3262 7.07778 24.502C7.25964 24.9562 7.59412 25.5864 7.83553 25.9379C8.03751 26.233 8.07398 26.2696 8.17001 26.2795C8.23278 26.2862 8.29581 26.276 8.31217 26.2596C8.33202 26.2397 8.38835 26.3161 8.46774 26.4684C8.53721 26.6012 8.66302 26.7936 8.7459 26.8963C8.832 27.0024 8.89155 27.1051 8.88163 27.1317C8.8717 27.1583 8.88484 27.354 8.91462 27.5695C8.94117 27.785 8.9975 28.2228 9.03371 28.5413C9.13322 29.3569 9.22898 29.8146 9.47414 30.6139C9.72896 31.4397 9.81507 31.8442 9.86791 32.4212C9.93416 33.1874 9.82821 34.0165 9.47736 35.396C9.36149 35.8536 9.24561 36.3678 9.21584 36.54C9.11338 37.1834 9.17936 38.374 9.35157 38.8813C9.47066 39.2364 9.7818 39.83 9.95079 40.019C10.222 40.3175 10.5763 40.4202 10.874 40.2842C11.0098 40.2213 11.205 40.0122 11.2879 39.8365C11.3244 39.7569 11.374 39.7271 11.5229 39.6806C11.8804 39.5744 12.0459 39.4253 12.1782 39.0869C12.2313 38.951 12.3008 38.8582 12.4563 38.7155C12.5687 38.6129 12.7144 38.4538 12.7774 38.3608C12.8402 38.2678 12.8997 38.1917 12.9096 38.1917C12.9196 38.1917 12.9394 38.3377 12.9493 38.5134C13.0024 39.3724 13.3731 40.6922 13.9026 41.9158C13.9721 42.0816 14.0252 42.2211 14.0185 42.2275C13.9919 42.2541 13.0191 42.3702 12.8238 42.3702C12.6084 42.3702 11.9266 42.3071 11.0363 42.2012C10.7284 42.1646 10.2418 42.1249 9.95723 42.1149C9.14315 42.0851 8.90791 42.1448 8.18986 42.579C7.27305 43.1297 7.04451 43.3154 6.7897 43.7099C6.60113 44.005 6.23365 44.7712 6.20388 44.9303C6.17062 45.1096 6.2865 45.471 6.43215 45.6433C6.57136 45.8059 6.69045 45.8556 7.14376 45.9486C7.53109 46.0282 7.61397 46.0214 7.86208 45.8855L8.0308 45.7927L8.1963 45.8723C8.39505 45.9717 8.78238 46.0115 8.98758 45.9551C9.06348 45.9352 9.19599 45.8656 9.28209 45.796L9.44088 45.6766L9.65949 45.7331C9.91083 45.796 10.2949 45.8357 11.1189 45.8887C11.7611 45.9287 12.1881 45.9121 12.9032 45.8191C13.3367 45.7629 13.3898 45.7594 13.4791 45.8091C13.5553 45.8489 13.6312 45.8556 13.8133 45.8357C14.0252 45.8158 14.0681 45.8258 14.2304 45.8989C14.4686 46.0115 14.7269 46.0115 15.6107 45.9021C15.9779 45.8588 16.4546 45.8126 16.6697 45.8027C16.8851 45.7892 17.2888 45.753 17.5701 45.7164C17.848 45.6799 18.1163 45.6567 18.1659 45.6667C18.2123 45.6766 18.5366 45.7164 18.8807 45.753C19.2283 45.7892 19.6653 45.8424 19.8573 45.8688C20.6551 45.9749 21.2374 45.9948 22.3661 45.9518C23.101 45.9252 23.9749 45.9188 25.087 45.9352C26.2356 45.9518 26.8842 45.9486 27.2549 45.922C27.5462 45.8989 28.1486 45.8787 28.5955 45.8755L29.4063 45.8688L29.6016 45.7728C29.8234 45.6632 30.2239 45.3017 30.2834 45.1558C30.3199 45.0663 30.3068 44.9935 30.1179 44.4065C30.0056 44.0483 29.9227 43.7497 29.9294 43.7433C29.9559 43.7167 30.1676 43.8161 30.3231 43.9222C30.6045 44.1147 30.9454 44.2671 31.2037 44.3103C31.7598 44.4065 32.3687 44.4396 32.8488 44.3966C33.4378 44.3434 33.5703 44.3004 33.8053 44.0948C33.9113 44.0018 34.0668 43.8924 34.1562 43.8459C34.3745 43.7365 34.4209 43.6237 34.4209 43.2093C34.4209 42.9639 34.4043 42.851 34.3581 42.7484L34.2986 42.6156L34.4244 42.5094C34.5896 42.367 34.7685 42.0453 34.9075 41.6274C35.0365 41.2461 35.0333 41.1665 34.8809 40.9805C34.7951 40.8712 34.7851 40.8349 34.8015 40.7352C34.8313 40.5828 34.7653 40.271 34.6891 40.2014C34.6593 40.1716 34.507 40.1251 34.3514 40.0985C33.9378 40.019 33.8581 39.9891 33.8581 39.9061C33.8581 39.7569 33.7755 39.7072 33.4445 39.6543C33.2922 39.6277 33.1599 39.6242 33.054 39.6443C32.9381 39.6674 32.8984 39.6642 32.9116 39.6376C32.9183 39.6177 32.9746 39.4484 33.0374 39.2627C33.1103 39.0407 33.1664 38.9211 33.2029 38.9112C33.2659 38.8948 33.4577 38.4936 33.5934 38.092C33.6795 37.8467 33.6994 37.8104 33.7589 37.8203C33.7986 37.8268 33.8581 37.8069 33.8914 37.7771C34.047 37.6379 34.2224 36.7722 34.2355 36.0858C34.2423 35.8469 34.2621 35.5717 34.2852 35.4723C34.305 35.3728 34.3216 35.0778 34.3184 34.8157C34.3149 34.3879 34.3216 34.3347 34.3745 34.2949C34.4308 34.2551 34.4375 34.2022 34.4308 33.708C34.4244 33.0514 34.3713 32.451 34.2819 32.0068C34.2455 31.8243 34.2026 31.5988 34.1891 31.5093C34.1594 31.3236 34.1065 31.1643 33.9775 30.8858L33.8879 30.6934L33.9542 30.584C34.0733 30.3916 34.0569 30.2855 33.7291 29.0949C33.6894 28.9525 33.5803 28.6773 33.481 28.4816C33.322 28.1564 33.312 28.1199 33.3517 28.0438C33.3751 27.9973 33.3949 27.9409 33.3949 27.9178C33.3949 27.7552 32.1602 25.6692 31.5447 24.7939C31.3328 24.4953 31.3228 24.4722 31.336 24.3228C31.3494 24.1768 31.3261 24.1172 31.068 23.6098C30.7502 22.9731 30.5251 22.595 30.1279 22.0113C29.873 21.6433 29.85 21.5936 29.883 21.5205C29.9559 21.3614 29.9262 21.2386 29.7671 21.033C29.681 20.9269 29.6016 20.7909 29.5852 20.7312C29.5388 20.5689 28.89 20.0016 28.2712 19.5872L28.0029 19.4079L27.9335 19.1727C27.8672 18.9505 27.8474 18.9271 27.4933 18.5756C27.2881 18.3732 26.977 18.1015 26.8015 17.9688C26.4174 17.6804 25.6364 17.2028 25.2887 17.0402C25.1498 16.9774 25.0339 16.9209 25.0275 16.9174C25.0208 16.911 25.0406 16.861 25.0672 16.8048C25.1763 16.5957 25.1433 16.5097 24.862 16.2378C24.3556 15.7468 23.4253 14.9343 23.2765 14.8481C23.2301 14.825 23.2333 14.8118 23.2832 14.732C23.3923 14.5661 23.3194 14.4436 22.8296 13.9628C22.5879 13.7239 22.3232 13.485 22.2438 13.4355C22.1644 13.3823 22.022 13.2297 21.9227 13.0972C21.8267 12.9676 21.7009 12.8252 21.6445 12.7854C21.5584 12.719 21.5485 12.6959 21.5652 12.5997C21.585 12.5035 21.5719 12.4737 21.4592 12.3707C20.8171 11.7607 19.9598 11.167 18.5398 10.3447C18.146 10.1157 17.7952 9.90338 17.7622 9.87355C17.7123 9.82732 17.7091 9.80071 17.7389 9.72439C17.815 9.51879 17.5999 9.34304 16.6632 8.85231C16.3588 8.68972 16.0906 8.53384 16.0739 8.50401C16.0509 8.46746 16.0541 8.34491 16.0807 8.11271C16.1204 7.82408 16.1335 7.78108 16.1799 7.80096C16.5407 7.94689 17.186 8.16243 17.8912 8.36157C18.9008 8.64993 19.0199 8.67977 19.8077 8.8257C21.3235 9.10761 22.1907 9.15733 23.7298 9.04446C24.9446 8.95523 25.0969 8.93508 25.9971 8.75932C27.0365 8.5505 27.2052 8.49083 27.2052 8.31507C27.2052 8.2022 27.0928 8.11943 26.5269 7.81763C24.6865 6.83267 22.7931 5.94715 21.9259 5.65878C21.7438 5.59885 21.6116 5.5424 21.6282 5.53918C21.6977 5.51929 23.3658 5.23093 23.6968 5.18121C23.8888 5.15138 24.3786 5.09145 24.789 5.04522C26.1261 4.8958 27.5695 4.60071 28.8404 4.21614C29.6579 3.96728 30.8196 3.48327 31.0978 3.27741C31.2732 3.14814 31.3923 2.91594 31.3459 2.79662C31.2931 2.65741 31.3593 2.69046 29.4892 1.91781C28.7578 1.616 28.4466 1.51334 27.2814 1.17821C25.0505 0.541549 23.4023 0.229815 21.3632 0.0540538C20.9429 0.0175041 18.4008 -0.0155592 18.0369 0.00782182Z" fill="#4E4B4C"/>
</svg>
