<svg xmlns="http://www.w3.org/2000/svg" xmlns:xlink="http://www.w3.org/1999/xlink" xmlns:serif="http://www.serif.com/" viewBox="0 0 64 80" version="1.1" xml:space="preserve" style="" x="0px" y="0px" fill-rule="evenodd" clip-rule="evenodd" stroke-linejoin="round" stroke-miterlimit="2"><g transform="matrix(1.03003,0,0,1.03003,-1.16324,-0.542916)"><g transform="matrix(1.00706,0,0,1.00706,-0.0331143,-0.631586)"><path d="M20.369,46.252C18.524,46.87 16.597,47.307 14.749,47.517C13.457,47.748 12.266,47.837 11.172,47.801C11.141,47.875 11.091,47.942 11.023,47.996C11.095,48.028 11.18,48.062 11.26,48.085C11.735,48.22 12.431,48.312 13.274,48.374C17.708,48.703 26.024,48.185 28.205,48.037C27.898,46.656 26.791,46.064 25.547,45.844C23.24,45.435 20.454,46.236 20.454,46.236C20.426,46.244 20.397,46.249 20.369,46.252Z"/></g><g transform="matrix(1.00706,0,0,1.00706,-0.0331143,-0.631586)"><path d="M45.46,19.078C45.523,19.25 45.584,19.428 45.642,19.614C45.724,19.877 45.577,20.158 45.313,20.24C45.05,20.323 44.769,20.176 44.687,19.912C44.017,17.767 43.005,16.737 41.873,16.501C40.565,16.23 39.18,17.011 38.191,18.132C37.195,19.26 36.578,20.758 36.925,22.007C37.126,22.73 37.669,23.348 38.638,23.748C39.727,24.197 41.311,24.372 43.512,24.144C43.787,24.116 44.033,24.315 44.061,24.59C44.089,24.864 43.89,25.11 43.615,25.139C43.026,25.2 42.477,25.232 41.966,25.239C41.88,25.342 41.754,25.409 41.613,25.417C41.568,25.446 41.339,25.594 41.173,25.752C40.709,26.19 40.129,26.925 39.618,27.818C38.643,29.521 37.892,31.812 38.819,33.735C39.771,35.708 42.438,37.205 48.156,37.42C48.432,37.43 48.647,37.662 48.637,37.938C48.626,38.214 48.394,38.429 48.118,38.419C41.824,38.183 38.966,36.341 37.918,34.169C36.847,31.947 37.624,29.289 38.75,27.322C39.266,26.419 39.851,25.665 40.343,25.165C37.632,24.859 36.344,23.655 35.961,22.274C35.71,21.366 35.842,20.344 36.244,19.372C34.747,19.644 32.696,19.816 30.853,19.302C29.548,18.938 26.763,17.698 23.365,17.013C18.399,16.012 12.086,16.209 7.296,22.33C3.913,26.652 2.103,32.125 2.242,36.825C2.333,39.887 3.25,42.619 5.134,44.449C7.151,46.408 10.264,47.308 14.588,46.53L14.621,46.525C19.025,46.028 23.904,44.198 26.856,41.697C28.707,40.13 29.804,38.309 29.381,36.376C28.909,34.222 26.631,32.022 21.793,29.901C21.54,29.79 21.425,29.495 21.536,29.243C21.647,28.99 21.942,28.875 22.195,28.985C27.466,31.296 29.843,33.815 30.358,36.162C30.855,38.431 29.675,40.62 27.502,42.461C26.517,43.295 25.326,44.061 24.012,44.732C24.582,44.726 25.164,44.76 25.721,44.859C26.283,44.958 26.818,45.12 27.296,45.363C27.377,45.344 27.463,45.346 27.548,45.372C27.548,45.372 29.445,45.92 33.182,45.055C31.55,43.51 31.332,42.044 31.332,42.044C31.288,41.771 31.473,41.514 31.745,41.47C32.017,41.425 32.275,41.611 32.319,41.883C32.319,41.883 33.46,48.259 47.718,47.521C47.715,47.501 47.714,47.48 47.713,47.458C47.713,47.455 47.713,47.453 47.713,47.45C47.568,46.987 47.39,46.657 47.167,46.414C46.684,45.888 46.016,45.772 45.169,45.51C43.533,45.004 41.269,44.134 38.287,40.208C38.12,39.988 38.163,39.674 38.383,39.507C38.603,39.34 38.917,39.383 39.084,39.603C40.613,41.617 41.938,42.773 43.074,43.485C43.132,43.472 43.193,43.469 43.255,43.478C44.763,43.699 46.451,43.037 48.087,42.123C48.354,41.973 48.62,41.817 48.883,41.656C48.92,41.625 48.962,41.6 49.006,41.581C50.633,40.574 52.161,39.399 53.364,38.58C53.157,38.561 52.946,38.538 52.731,38.511C52.457,38.477 52.262,38.227 52.297,37.953C52.331,37.679 52.581,37.485 52.855,37.519C56.588,37.986 58.976,37.17 60.333,35.68C62.353,33.46 62.047,29.839 60.644,27.173C59.813,25.596 58.595,24.332 57.196,23.941C58.404,25.843 59.285,28.365 59.555,31.713L59.556,31.738L59.556,31.75C59.557,31.798 59.55,31.845 59.538,31.889L59.535,31.9L59.528,31.921L59.519,31.943L59.512,31.959L59.502,31.981L59.499,31.987C59.486,32.012 59.471,32.035 59.453,32.058L59.448,32.064L59.432,32.083L59.422,32.095L59.406,32.111L59.397,32.12L57.948,33.464C57.808,33.594 57.607,33.633 57.429,33.565L55.448,32.802C55.238,32.721 55.108,32.51 55.13,32.286C55.152,32.062 55.322,31.88 55.544,31.843L58.517,31.338C58.047,26.654 56.295,23.752 54.154,21.963C51.127,19.434 47.354,19.124 45.46,19.078Z"/></g><g transform="matrix(1.00706,0,0,1.00706,-0.0331143,-0.631586)"><path d="M48.777,42.881C48.71,42.92 48.642,42.958 48.575,42.996C47.389,43.659 46.171,44.181 45.001,44.403C45.505,44.578 45.953,44.696 46.35,44.828C46.975,45.035 47.486,45.282 47.904,45.738C48.173,46.031 48.406,46.414 48.597,46.946L53.308,46.881C53.276,46.378 53.023,45.975 52.758,45.68C52.465,45.354 52.152,45.153 52.049,45.091C49.845,44.392 49.041,43.538 48.777,42.881Z"/></g><g transform="matrix(1.00706,0,0,1.00706,-0.0331143,-0.631586)"><path d="M53.44,20.219C53.105,17.641 52.294,16.304 51.312,15.774C50.315,15.237 49.195,15.617 48.472,16.249C48.168,16.515 47.932,16.827 47.813,17.145C47.722,17.39 47.701,17.637 47.815,17.849C47.888,17.984 47.892,18.139 47.839,18.272C49.509,18.512 51.538,19.042 53.44,20.219Z"/></g></g><text x="0" y="79" fill="#000000" font-size="5px" font-weight="bold" font-family="'Helvetica Neue', Helvetica, Arial-Unicode, Arial, Sans-serif">Created by HAMEL KHALED</text><text x="0" y="84" fill="#000000" font-size="5px" font-weight="bold" font-family="'Helvetica Neue', Helvetica, Arial-Unicode, Arial, Sans-serif">from the Noun Project</text></svg>